# xmcd CD database file
#
# Track frame offsets:
#	150
#	15170
#	34240
#	71230
#	93700
#	109300
#	124700
#	136862
#	156675
#	168825
#	190467
#	206402
#	243425
#	262677
#	277410
#	293270
#
# Disc length: 4113 seconds
#
# Revision: 0
# Processed by: cddbd v1.5.1PL0 Copyright (c) Steve Scherf et al.
# Submitted via: CDex 1.51
#
DISCID=e9100f10
DTITLE=Matchbox Bluesband - Four Of a Kind
DYEAR=1995
DGENRE=Blues
TTITLE0=Rockin' Daddy
TTITLE1=I Ain't Gonna Be Your Monkey Man No More
TTITLE2=I Smell Trouble
TTITLE3=Good Rockin' Mama
TTITLE4=She Walks Right In
TTITLE5=I Can't Sing The Blues No More
TTITLE6=Crazy Little Mama
TTITLE7=Past Life
TTITLE8=Moonshine
TTITLE9=Hoy Hoy (Hop, Skip and Jump)
TTITLE10=Gone To Main Street
TTITLE11=She And The Devil
TTITLE12=Nothin' Between
TTITLE13=Okie Dokie Stomp
TTITLE14=The World Is Yours
TTITLE15=Just One More Time
EXTD=YEAR: 1995
EXTT0=
EXTT1=
EXTT2=
EXTT3=
EXTT4=
EXTT5=
EXTT6=
EXTT7=
EXTT8=
EXTT9=
EXTT10=
EXTT11=
EXTT12=
EXTT13=
EXTT14=
EXTT15=
PLAYORDER=
